<?xml version="1.0" encoding="utf-8" standalone="no"?>
<!DOCTYPE svg PUBLIC "-//W3C//DTD SVG 1.1//EN"
  "http://www.w3.org/Graphics/SVG/1.1/DTD/svg11.dtd">
<svg xmlns:xlink="http://www.w3.org/1999/xlink" width="424.010625pt" height="392.428078pt" viewBox="0 0 424.010625 392.428078" xmlns="http://www.w3.org/2000/svg" version="1.1">
 <metadata>
  <rdf:RDF xmlns:dc="http://purl.org/dc/elements/1.1/" xmlns:cc="http://creativecommons.org/ns#" xmlns:rdf="http://www.w3.org/1999/02/22-rdf-syntax-ns#">
   <cc:Work>
    <dc:type rdf:resource="http://purl.org/dc/dcmitype/StillImage"/>
    <dc:date>2024-04-17T13:37:34.324570</dc:date>
    <dc:format>image/svg+xml</dc:format>
    <dc:creator>
     <cc:Agent>
      <dc:title>Matplotlib v3.6.3, https://matplotlib.org/</dc:title>
     </cc:Agent>
    </dc:creator>
   </cc:Work>
  </rdf:RDF>
 </metadata>
 <defs>
  <style type="text/css">*{stroke-linejoin: round; stroke-linecap: butt}</style>
 </defs>
 <g id="figure_1">
  <g id="patch_1">
   <path d="M 0 392.428078 
L 424.010625 392.428078 
L 424.010625 0 
L 0 0 
z
" style="fill: #ffffff"/>
  </g>
  <g id="axes_1">
   <g id="patch_2">
    <path d="M 59.690625 288.430125 
L 416.810625 288.430125 
L 416.810625 22.318125 
L 59.690625 22.318125 
z
" style="fill: #ffffff"/>
   </g>
   <g id="patch_3">
    <path d="M 66.067768 288.430125 
L 69.256339 288.430125 
L 69.256339 275.856668 
L 66.067768 275.856668 
z
" clip-path="url(#pb4c0e9f45c)" style="fill: #1f77b4"/>
   </g>
   <g id="patch_4">
    <path d="M 91.576339 288.430125 
L 94.764911 288.430125 
L 94.764911 186.947918 
L 91.576339 186.947918 
z
" clip-path="url(#pb4c0e9f45c)" style="fill: #1f77b4"/>
   </g>
   <g id="patch_5">
    <path d="M 117.084911 288.430125 
L 120.273482 288.430125 
L 120.273482 191.467128 
L 117.084911 191.467128 
z
" clip-path="url(#pb4c0e9f45c)" style="fill: #1f77b4"/>
   </g>
   <g id="patch_6">
    <path d="M 142.593482 288.430125 
L 145.782054 288.430125 
L 145.782054 176.360785 
L 142.593482 176.360785 
z
" clip-path="url(#pb4c0e9f45c)" style="fill: #1f77b4"/>
   </g>
   <g id="patch_7">
    <path d="M 168.102054 288.430125 
L 171.290625 288.430125 
L 171.290625 182.520732 
L 168.102054 182.520732 
z
" clip-path="url(#pb4c0e9f45c)" style="fill: #1f77b4"/>
   </g>
   <g id="patch_8">
    <path d="M 193.610625 288.430125 
L 196.799196 288.430125 
L 196.799196 271.641064 
L 193.610625 271.641064 
z
" clip-path="url(#pb4c0e9f45c)" style="fill: #1f77b4"/>
   </g>
   <g id="patch_9">
    <path d="M 219.119196 288.430125 
L 222.307768 288.430125 
L 222.307768 181.347005 
L 219.119196 181.347005 
z
" clip-path="url(#pb4c0e9f45c)" style="fill: #1f77b4"/>
   </g>
   <g id="patch_10">
    <path d="M 244.627768 288.430125 
L 247.816339 288.430125 
L 247.816339 254.621683 
L 244.627768 254.621683 
z
" clip-path="url(#pb4c0e9f45c)" style="fill: #1f77b4"/>
   </g>
   <g id="patch_11">
    <path d="M 270.136339 288.430125 
L 273.324911 288.430125 
L 273.324911 188.371871 
L 270.136339 188.371871 
z
" clip-path="url(#pb4c0e9f45c)" style="fill: #1f77b4"/>
   </g>
   <g id="patch_12">
    <path d="M 295.644911 288.430125 
L 298.833482 288.430125 
L 298.833482 147.907035 
L 295.644911 147.907035 
z
" clip-path="url(#pb4c0e9f45c)" style="fill: #1f77b4"/>
   </g>
   <g id="patch_13">
    <path d="M 321.153482 288.430125 
L 324.342054 288.430125 
L 324.342054 171.50807 
L 321.153482 171.50807 
z
" clip-path="url(#pb4c0e9f45c)" style="fill: #1f77b4"/>
   </g>
   <g id="patch_14">
    <path d="M 346.662054 288.430125 
L 349.850625 288.430125 
L 349.850625 272.668721 
L 346.662054 272.668721 
z
" clip-path="url(#pb4c0e9f45c)" style="fill: #1f77b4"/>
   </g>
   <g id="patch_15">
    <path d="M 372.170625 288.430125 
L 375.359196 288.430125 
L 375.359196 193.742487 
L 372.170625 193.742487 
z
" clip-path="url(#pb4c0e9f45c)" style="fill: #1f77b4"/>
   </g>
   <g id="patch_16">
    <path d="M 397.679196 288.430125 
L 400.867768 288.430125 
L 400.867768 167.39174 
L 397.679196 167.39174 
z
" clip-path="url(#pb4c0e9f45c)" style="fill: #1f77b4"/>
   </g>
   <g id="patch_17">
    <path d="M 69.256339 288.430125 
L 72.444911 288.430125 
L 72.444911 248.378171 
L 69.256339 248.378171 
z
" clip-path="url(#pb4c0e9f45c)" style="fill: #ff7f0e"/>
   </g>
   <g id="patch_18">
    <path d="M 94.764911 288.430125 
L 97.953482 288.430125 
L 97.953482 146.477506 
L 94.764911 146.477506 
z
" clip-path="url(#pb4c0e9f45c)" style="fill: #ff7f0e"/>
   </g>
   <g id="patch_19">
    <path d="M 120.273482 288.430125 
L 123.462054 288.430125 
L 123.462054 34.990125 
L 120.273482 34.990125 
z
" clip-path="url(#pb4c0e9f45c)" style="fill: #ff7f0e"/>
   </g>
   <g id="patch_20">
    <path d="M 145.782054 288.430125 
L 148.970625 288.430125 
L 148.970625 122.181567 
L 145.782054 122.181567 
z
" clip-path="url(#pb4c0e9f45c)" style="fill: #ff7f0e"/>
   </g>
   <g id="patch_21">
    <path d="M 171.290625 288.430125 
L 174.479196 288.430125 
L 174.479196 114.956528 
L 171.290625 114.956528 
z
" clip-path="url(#pb4c0e9f45c)" style="fill: #ff7f0e"/>
   </g>
   <g id="patch_22">
    <path d="M 196.799196 288.430125 
L 199.987768 288.430125 
L 199.987768 250.64456 
L 196.799196 250.64456 
z
" clip-path="url(#pb4c0e9f45c)" style="fill: #ff7f0e"/>
   </g>
   <g id="patch_23">
    <path d="M 222.307768 288.430125 
L 225.496339 288.430125 
L 225.496339 66.590919 
L 222.307768 66.590919 
z
" clip-path="url(#pb4c0e9f45c)" style="fill: #ff7f0e"/>
   </g>
   <g id="patch_24">
    <path d="M 247.816339 288.430125 
L 251.004911 288.430125 
L 251.004911 220.846873 
L 247.816339 220.846873 
z
" clip-path="url(#pb4c0e9f45c)" style="fill: #ff7f0e"/>
   </g>
   <g id="patch_25">
    <path d="M 273.324911 288.430125 
L 276.513482 288.430125 
L 276.513482 93.85372 
L 273.324911 93.85372 
z
" clip-path="url(#pb4c0e9f45c)" style="fill: #ff7f0e"/>
   </g>
   <g id="patch_26">
    <path d="M 298.833482 288.430125 
L 302.022054 288.430125 
L 302.022054 65.690678 
L 298.833482 65.690678 
z
" clip-path="url(#pb4c0e9f45c)" style="fill: #ff7f0e"/>
   </g>
   <g id="patch_27">
    <path d="M 324.342054 288.430125 
L 327.530625 288.430125 
L 327.530625 83.937207 
L 324.342054 83.937207 
z
" clip-path="url(#pb4c0e9f45c)" style="fill: #ff7f0e"/>
   </g>
   <g id="patch_28">
    <path d="M 349.850625 288.430125 
L 353.039196 288.430125 
L 353.039196 256.530565 
L 349.850625 256.530565 
z
" clip-path="url(#pb4c0e9f45c)" style="fill: #ff7f0e"/>
   </g>
   <g id="patch_29">
    <path d="M 375.359196 288.430125 
L 378.547768 288.430125 
L 378.547768 179.838465 
L 375.359196 179.838465 
z
" clip-path="url(#pb4c0e9f45c)" style="fill: #ff7f0e"/>
   </g>
   <g id="patch_30">
    <path d="M 400.867768 288.430125 
L 404.056339 288.430125 
L 404.056339 111.391554 
L 400.867768 111.391554 
z
" clip-path="url(#pb4c0e9f45c)" style="fill: #ff7f0e"/>
   </g>
   <g id="patch_31">
    <path d="M 72.444911 288.430125 
L 75.633482 288.430125 
L 75.633482 240.56401 
L 72.444911 240.56401 
z
" clip-path="url(#pb4c0e9f45c)" style="fill: #2ca02c"/>
   </g>
   <g id="patch_32">
    <path d="M 97.953482 288.430125 
L 101.142054 288.430125 
L 101.142054 151.210702 
L 97.953482 151.210702 
z
" clip-path="url(#pb4c0e9f45c)" style="fill: #2ca02c"/>
   </g>
   <g id="patch_33">
    <path d="M 123.462054 288.430125 
L 126.650625 288.430125 
L 126.650625 41.264502 
L 123.462054 41.264502 
z
" clip-path="url(#pb4c0e9f45c)" style="fill: #2ca02c"/>
   </g>
   <g id="patch_34">
    <path d="M 148.970625 288.430125 
L 152.159196 288.430125 
L 152.159196 121.638968 
L 148.970625 121.638968 
z
" clip-path="url(#pb4c0e9f45c)" style="fill: #2ca02c"/>
   </g>
   <g id="patch_35">
    <path d="M 174.479196 288.430125 
L 177.667768 288.430125 
L 177.667768 99.799048 
L 174.479196 99.799048 
z
" clip-path="url(#pb4c0e9f45c)" style="fill: #2ca02c"/>
   </g>
   <g id="patch_36">
    <path d="M 199.987768 288.430125 
L 203.176339 288.430125 
L 203.176339 248.738807 
L 199.987768 248.738807 
z
" clip-path="url(#pb4c0e9f45c)" style="fill: #2ca02c"/>
   </g>
   <g id="patch_37">
    <path d="M 225.496339 288.430125 
L 228.684911 288.430125 
L 228.684911 72.672674 
L 225.496339 72.672674 
z
" clip-path="url(#pb4c0e9f45c)" style="fill: #2ca02c"/>
   </g>
   <g id="patch_38">
    <path d="M 251.004911 288.430125 
L 254.193482 288.430125 
L 254.193482 219.527423 
L 251.004911 219.527423 
z
" clip-path="url(#pb4c0e9f45c)" style="fill: #2ca02c"/>
   </g>
   <g id="patch_39">
    <path d="M 276.513482 288.430125 
L 279.702054 288.430125 
L 279.702054 100.450437 
L 276.513482 100.450437 
z
" clip-path="url(#pb4c0e9f45c)" style="fill: #2ca02c"/>
   </g>
   <g id="patch_40">
    <path d="M 302.022054 288.430125 
L 305.210625 288.430125 
L 305.210625 70.383945 
L 302.022054 70.383945 
z
" clip-path="url(#pb4c0e9f45c)" style="fill: #2ca02c"/>
   </g>
   <g id="patch_41">
    <path d="M 327.530625 288.430125 
L 330.719196 288.430125 
L 330.719196 83.644547 
L 327.530625 83.644547 
z
" clip-path="url(#pb4c0e9f45c)" style="fill: #2ca02c"/>
   </g>
   <g id="patch_42">
    <path d="M 353.039196 288.430125 
L 356.227768 288.430125 
L 356.227768 251.910695 
L 353.039196 251.910695 
z
" clip-path="url(#pb4c0e9f45c)" style="fill: #2ca02c"/>
   </g>
   <g id="patch_43">
    <path d="M 378.547768 288.430125 
L 381.736339 288.430125 
L 381.736339 165.961112 
L 378.547768 165.961112 
z
" clip-path="url(#pb4c0e9f45c)" style="fill: #2ca02c"/>
   </g>
   <g id="patch_44">
    <path d="M 404.056339 288.430125 
L 407.244911 288.430125 
L 407.244911 113.531007 
L 404.056339 113.531007 
z
" clip-path="url(#pb4c0e9f45c)" style="fill: #2ca02c"/>
   </g>
   <g id="patch_45">
    <path d="M 75.633482 288.430125 
L 78.822054 288.430125 
L 78.822054 255.902547 
L 75.633482 255.902547 
z
" clip-path="url(#pb4c0e9f45c)" style="fill: #d62728"/>
   </g>
   <g id="patch_46">
    <path d="M 101.142054 288.430125 
L 104.330625 288.430125 
L 104.330625 157.153658 
L 101.142054 157.153658 
z
" clip-path="url(#pb4c0e9f45c)" style="fill: #d62728"/>
   </g>
   <g id="patch_47">
    <path d="M 126.650625 288.430125 
L 129.839196 288.430125 
L 129.839196 221.856103 
L 126.650625 221.856103 
z
" clip-path="url(#pb4c0e9f45c)" style="fill: #d62728"/>
   </g>
   <g id="patch_48">
    <path d="M 152.159196 288.430125 
L 155.347768 288.430125 
L 155.347768 240.597889 
L 152.159196 240.597889 
z
" clip-path="url(#pb4c0e9f45c)" style="fill: #d62728"/>
   </g>
   <g id="patch_49">
    <path d="M 177.667768 288.430125 
L 180.856339 288.430125 
L 180.856339 128.508629 
L 177.667768 128.508629 
z
" clip-path="url(#pb4c0e9f45c)" style="fill: #d62728"/>
   </g>
   <g id="patch_50">
    <path d="M 203.176339 288.430125 
L 206.364911 288.430125 
L 206.364911 261.519189 
L 203.176339 261.519189 
z
" clip-path="url(#pb4c0e9f45c)" style="fill: #d62728"/>
   </g>
   <g id="patch_51">
    <path d="M 228.684911 288.430125 
L 231.873482 288.430125 
L 231.873482 204.533384 
L 228.684911 204.533384 
z
" clip-path="url(#pb4c0e9f45c)" style="fill: #d62728"/>
   </g>
   <g id="patch_52">
    <path d="M 254.193482 288.430125 
L 257.382054 288.430125 
L 257.382054 233.307963 
L 254.193482 233.307963 
z
" clip-path="url(#pb4c0e9f45c)" style="fill: #d62728"/>
   </g>
   <g id="patch_53">
    <path d="M 279.702054 288.430125 
L 282.890625 288.430125 
L 282.890625 213.388137 
L 279.702054 213.388137 
z
" clip-path="url(#pb4c0e9f45c)" style="fill: #d62728"/>
   </g>
   <g id="patch_54">
    <path d="M 305.210625 288.430125 
L 308.399196 288.430125 
L 308.399196 210.548749 
L 305.210625 210.548749 
z
" clip-path="url(#pb4c0e9f45c)" style="fill: #d62728"/>
   </g>
   <g id="patch_55">
    <path d="M 330.719196 288.430125 
L 333.907768 288.430125 
L 333.907768 204.256053 
L 330.719196 204.256053 
z
" clip-path="url(#pb4c0e9f45c)" style="fill: #d62728"/>
   </g>
   <g id="patch_56">
    <path d="M 356.227768 288.430125 
L 359.416339 288.430125 
L 359.416339 267.44114 
L 356.227768 267.44114 
z
" clip-path="url(#pb4c0e9f45c)" style="fill: #d62728"/>
   </g>
   <g id="patch_57">
    <path d="M 381.736339 288.430125 
L 384.924911 288.430125 
L 384.924911 285.348671 
L 381.736339 285.348671 
z
" clip-path="url(#pb4c0e9f45c)" style="fill: #d62728"/>
   </g>
   <g id="patch_58">
    <path d="M 407.244911 288.430125 
L 410.433482 288.430125 
L 410.433482 241.565588 
L 407.244911 241.565588 
z
" clip-path="url(#pb4c0e9f45c)" style="fill: #d62728"/>
   </g>
   <g id="matplotlib.axis_1">
    <g id="xtick_1">
     <g id="line2d_1">
      <defs>
       <path id="m25d959105f" d="M 0 0 
L 0 3.5 
" style="stroke: #000000; stroke-width: 0.8"/>
      </defs>
      <g>
       <use xlink:href="#m25d959105f" x="72.444911" y="288.430125" style="stroke: #000000; stroke-width: 0.8"/>
      </g>
     </g>
     <g id="text_1">
      <!-- 2cubes_sphere -->
      <g transform="translate(62.081978 368.502954) rotate(-70) scale(0.1 -0.1)">
       <defs>
        <path id="DejaVuSans-32" d="M 1228 531 
L 3431 531 
L 3431 0 
L 469 0 
L 469 531 
Q 828 903 1448 1529 
Q 2069 2156 2228 2338 
Q 2531 2678 2651 2914 
Q 2772 3150 2772 3378 
Q 2772 3750 2511 3984 
Q 2250 4219 1831 4219 
Q 1534 4219 1204 4116 
Q 875 4013 500 3803 
L 500 4441 
Q 881 4594 1212 4672 
Q 1544 4750 1819 4750 
Q 2544 4750 2975 4387 
Q 3406 4025 3406 3419 
Q 3406 3131 3298 2873 
Q 3191 2616 2906 2266 
Q 2828 2175 2409 1742 
Q 1991 1309 1228 531 
z
" transform="scale(0.015625)"/>
        <path id="DejaVuSans-63" d="M 3122 3366 
L 3122 2828 
Q 2878 2963 2633 3030 
Q 2388 3097 2138 3097 
Q 1578 3097 1268 2742 
Q 959 2388 959 1747 
Q 959 1106 1268 751 
Q 1578 397 2138 397 
Q 2388 397 2633 464 
Q 2878 531 3122 666 
L 3122 134 
Q 2881 22 2623 -34 
Q 2366 -91 2075 -91 
Q 1284 -91 818 406 
Q 353 903 353 1747 
Q 353 2603 823 3093 
Q 1294 3584 2113 3584 
Q 2378 3584 2631 3529 
Q 2884 3475 3122 3366 
z
" transform="scale(0.015625)"/>
        <path id="DejaVuSans-75" d="M 544 1381 
L 544 3500 
L 1119 3500 
L 1119 1403 
Q 1119 906 1312 657 
Q 1506 409 1894 409 
Q 2359 409 2629 706 
Q 2900 1003 2900 1516 
L 2900 3500 
L 3475 3500 
L 3475 0 
L 2900 0 
L 2900 538 
Q 2691 219 2414 64 
Q 2138 -91 1772 -91 
Q 1169 -91 856 284 
Q 544 659 544 1381 
z
M 1991 3584 
L 1991 3584 
z
" transform="scale(0.015625)"/>
        <path id="DejaVuSans-62" d="M 3116 1747 
Q 3116 2381 2855 2742 
Q 2594 3103 2138 3103 
Q 1681 3103 1420 2742 
Q 1159 2381 1159 1747 
Q 1159 1113 1420 752 
Q 1681 391 2138 391 
Q 2594 391 2855 752 
Q 3116 1113 3116 1747 
z
M 1159 2969 
Q 1341 3281 1617 3432 
Q 1894 3584 2278 3584 
Q 2916 3584 3314 3078 
Q 3713 2572 3713 1747 
Q 3713 922 3314 415 
Q 2916 -91 2278 -91 
Q 1894 -91 1617 61 
Q 1341 213 1159 525 
L 1159 0 
L 581 0 
L 581 4863 
L 1159 4863 
L 1159 2969 
z
" transform="scale(0.015625)"/>
        <path id="DejaVuSans-65" d="M 3597 1894 
L 3597 1613 
L 953 1613 
Q 991 1019 1311 708 
Q 1631 397 2203 397 
Q 2534 397 2845 478 
Q 3156 559 3463 722 
L 3463 178 
Q 3153 47 2828 -22 
Q 2503 -91 2169 -91 
Q 1331 -91 842 396 
Q 353 884 353 1716 
Q 353 2575 817 3079 
Q 1281 3584 2069 3584 
Q 2775 3584 3186 3129 
Q 3597 2675 3597 1894 
z
M 3022 2063 
Q 3016 2534 2758 2815 
Q 2500 3097 2075 3097 
Q 1594 3097 1305 2825 
Q 1016 2553 972 2059 
L 3022 2063 
z
" transform="scale(0.015625)"/>
        <path id="DejaVuSans-73" d="M 2834 3397 
L 2834 2853 
Q 2591 2978 2328 3040 
Q 2066 3103 1784 3103 
Q 1356 3103 1142 2972 
Q 928 2841 928 2578 
Q 928 2378 1081 2264 
Q 1234 2150 1697 2047 
L 1894 2003 
Q 2506 1872 2764 1633 
Q 3022 1394 3022 966 
Q 3022 478 2636 193 
Q 2250 -91 1575 -91 
Q 1294 -91 989 -36 
Q 684 19 347 128 
L 347 722 
Q 666 556 975 473 
Q 1284 391 1588 391 
Q 1994 391 2212 530 
Q 2431 669 2431 922 
Q 2431 1156 2273 1281 
Q 2116 1406 1581 1522 
L 1381 1569 
Q 847 1681 609 1914 
Q 372 2147 372 2553 
Q 372 3047 722 3315 
Q 1072 3584 1716 3584 
Q 2034 3584 2315 3537 
Q 2597 3491 2834 3397 
z
" transform="scale(0.015625)"/>
        <path id="DejaVuSans-5f" d="M 3263 -1063 
L 3263 -1509 
L -63 -1509 
L -63 -1063 
L 3263 -1063 
z
" transform="scale(0.015625)"/>
        <path id="DejaVuSans-70" d="M 1159 525 
L 1159 -1331 
L 581 -1331 
L 581 3500 
L 1159 3500 
L 1159 2969 
Q 1341 3281 1617 3432 
Q 1894 3584 2278 3584 
Q 2916 3584 3314 3078 
Q 3713 2572 3713 1747 
Q 3713 922 3314 415 
Q 2916 -91 2278 -91 
Q 1894 -91 1617 61 
Q 1341 213 1159 525 
z
M 3116 1747 
Q 3116 2381 2855 2742 
Q 2594 3103 2138 3103 
Q 1681 3103 1420 2742 
Q 1159 2381 1159 1747 
Q 1159 1113 1420 752 
Q 1681 391 2138 391 
Q 2594 391 2855 752 
Q 3116 1113 3116 1747 
z
" transform="scale(0.015625)"/>
        <path id="DejaVuSans-68" d="M 3513 2113 
L 3513 0 
L 2938 0 
L 2938 2094 
Q 2938 2591 2744 2837 
Q 2550 3084 2163 3084 
Q 1697 3084 1428 2787 
Q 1159 2491 1159 1978 
L 1159 0 
L 581 0 
L 581 4863 
L 1159 4863 
L 1159 2956 
Q 1366 3272 1645 3428 
Q 1925 3584 2291 3584 
Q 2894 3584 3203 3211 
Q 3513 2838 3513 2113 
z
" transform="scale(0.015625)"/>
        <path id="DejaVuSans-72" d="M 2631 2963 
Q 2534 3019 2420 3045 
Q 2306 3072 2169 3072 
Q 1681 3072 1420 2755 
Q 1159 2438 1159 1844 
L 1159 0 
L 581 0 
L 581 3500 
L 1159 3500 
L 1159 2956 
Q 1341 3275 1631 3429 
Q 1922 3584 2338 3584 
Q 2397 3584 2469 3576 
Q 2541 3569 2628 3553 
L 2631 2963 
z
" transform="scale(0.015625)"/>
       </defs>
       <use xlink:href="#DejaVuSans-32"/>
       <use xlink:href="#DejaVuSans-63" x="63.623047"/>
       <use xlink:href="#DejaVuSans-75" x="118.603516"/>
       <use xlink:href="#DejaVuSans-62" x="181.982422"/>
       <use xlink:href="#DejaVuSans-65" x="245.458984"/>
       <use xlink:href="#DejaVuSans-73" x="306.982422"/>
       <use xlink:href="#DejaVuSans-5f" x="359.082031"/>
       <use xlink:href="#DejaVuSans-73" x="409.082031"/>
       <use xlink:href="#DejaVuSans-70" x="461.181641"/>
       <use xlink:href="#DejaVuSans-68" x="524.658203"/>
       <use xlink:href="#DejaVuSans-65" x="588.037109"/>
       <use xlink:href="#DejaVuSans-72" x="649.560547"/>
       <use xlink:href="#DejaVuSans-65" x="688.423828"/>
      </g>
     </g>
    </g>
    <g id="xtick_2">
     <g id="line2d_2">
      <g>
       <use xlink:href="#m25d959105f" x="97.953482" y="288.430125" style="stroke: #000000; stroke-width: 0.8"/>
      </g>
     </g>
     <g id="text_2">
      <!-- af23560 -->
      <g transform="translate(93.456209 336.989481) rotate(-70) scale(0.1 -0.1)">
       <defs>
        <path id="DejaVuSans-61" d="M 2194 1759 
Q 1497 1759 1228 1600 
Q 959 1441 959 1056 
Q 959 750 1161 570 
Q 1363 391 1709 391 
Q 2188 391 2477 730 
Q 2766 1069 2766 1631 
L 2766 1759 
L 2194 1759 
z
M 3341 1997 
L 3341 0 
L 2766 0 
L 2766 531 
Q 2569 213 2275 61 
Q 1981 -91 1556 -91 
Q 1019 -91 701 211 
Q 384 513 384 1019 
Q 384 1609 779 1909 
Q 1175 2209 1959 2209 
L 2766 2209 
L 2766 2266 
Q 2766 2663 2505 2880 
Q 2244 3097 1772 3097 
Q 1472 3097 1187 3025 
Q 903 2953 641 2809 
L 641 3341 
Q 956 3463 1253 3523 
Q 1550 3584 1831 3584 
Q 2591 3584 2966 3190 
Q 3341 2797 3341 1997 
z
" transform="scale(0.015625)"/>
        <path id="DejaVuSans-66" d="M 2375 4863 
L 2375 4384 
L 1825 4384 
Q 1516 4384 1395 4259 
Q 1275 4134 1275 3809 
L 1275 3500 
L 2222 3500 
L 2222 3053 
L 1275 3053 
L 1275 0 
L 697 0 
L 697 3053 
L 147 3053 
L 147 3500 
L 697 3500 
L 697 3744 
Q 697 4328 969 4595 
Q 1241 4863 1831 4863 
L 2375 4863 
z
" transform="scale(0.015625)"/>
        <path id="DejaVuSans-33" d="M 2597 2516 
Q 3050 2419 3304 2112 
Q 3559 1806 3559 1356 
Q 3559 666 3084 287 
Q 2609 -91 1734 -91 
Q 1441 -91 1130 -33 
Q 819 25 488 141 
L 488 750 
Q 750 597 1062 519 
Q 1375 441 1716 441 
Q 2309 441 2620 675 
Q 2931 909 2931 1356 
Q 2931 1769 2642 2001 
Q 2353 2234 1838 2234 
L 1294 2234 
L 1294 2753 
L 1863 2753 
Q 2328 2753 2575 2939 
Q 2822 3125 2822 3475 
Q 2822 3834 2567 4026 
Q 2313 4219 1838 4219 
Q 1578 4219 1281 4162 
Q 984 4106 628 3988 
L 628 4550 
Q 988 4650 1302 4700 
Q 1616 4750 1894 4750 
Q 2613 4750 3031 4423 
Q 3450 4097 3450 3541 
Q 3450 3153 3228 2886 
Q 3006 2619 2597 2516 
z
" transform="scale(0.015625)"/>
        <path id="DejaVuSans-35" d="M 691 4666 
L 3169 4666 
L 3169 4134 
L 1269 4134 
L 1269 2991 
Q 1406 3038 1543 3061 
Q 1681 3084 1819 3084 
Q 2600 3084 3056 2656 
Q 3513 2228 3513 1497 
Q 3513 744 3044 326 
Q 2575 -91 1722 -91 
Q 1428 -91 1123 -41 
Q 819 9 494 109 
L 494 744 
Q 775 591 1075 516 
Q 1375 441 1709 441 
Q 2250 441 2565 725 
Q 2881 1009 2881 1497 
Q 2881 1984 2565 2268 
Q 2250 2553 1709 2553 
Q 1456 2553 1204 2497 
Q 953 2441 691 2322 
L 691 4666 
z
" transform="scale(0.015625)"/>
        <path id="DejaVuSans-36" d="M 2113 2584 
Q 1688 2584 1439 2293 
Q 1191 2003 1191 1497 
Q 1191 994 1439 701 
Q 1688 409 2113 409 
Q 2538 409 2786 701 
Q 3034 994 3034 1497 
Q 3034 2003 2786 2293 
Q 2538 2584 2113 2584 
z
M 3366 4563 
L 3366 3988 
Q 3128 4100 2886 4159 
Q 2644 4219 2406 4219 
Q 1781 4219 1451 3797 
Q 1122 3375 1075 2522 
Q 1259 2794 1537 2939 
Q 1816 3084 2150 3084 
Q 2853 3084 3261 2657 
Q 3669 2231 3669 1497 
Q 3669 778 3244 343 
Q 2819 -91 2113 -91 
Q 1303 -91 875 529 
Q 447 1150 447 2328 
Q 447 3434 972 4092 
Q 1497 4750 2381 4750 
Q 2619 4750 2861 4703 
Q 3103 4656 3366 4563 
z
" transform="scale(0.015625)"/>
        <path id="DejaVuSans-30" d="M 2034 4250 
Q 1547 4250 1301 3770 
Q 1056 3291 1056 2328 
Q 1056 1369 1301 889 
Q 1547 409 2034 409 
Q 2525 409 2770 889 
Q 3016 1369 3016 2328 
Q 3016 3291 2770 3770 
Q 2525 4250 2034 4250 
z
M 2034 4750 
Q 2819 4750 3233 4129 
Q 3647 3509 3647 2328 
Q 3647 1150 3233 529 
Q 2819 -91 2034 -91 
Q 1250 -91 836 529 
Q 422 1150 422 2328 
Q 422 3509 836 4129 
Q 1250 4750 2034 4750 
z
" transform="scale(0.015625)"/>
       </defs>
       <use xlink:href="#DejaVuSans-61"/>
       <use xlink:href="#DejaVuSans-66" x="61.279297"/>
       <use xlink:href="#DejaVuSans-32" x="96.484375"/>
       <use xlink:href="#DejaVuSans-33" x="160.107422"/>
       <use xlink:href="#DejaVuSans-35" x="223.730469"/>
       <use xlink:href="#DejaVuSans-36" x="287.353516"/>
       <use xlink:href="#DejaVuSans-30" x="350.976562"/>
      </g>
     </g>
    </g>
    <g id="xtick_3">
     <g id="line2d_3">
      <g>
       <use xlink:href="#m25d959105f" x="123.462054" y="288.430125" style="stroke: #000000; stroke-width: 0.8"/>
      </g>
     </g>
     <g id="text_3">
      <!-- bcsstk13 -->
      <g transform="translate(118.4106 340.034672) rotate(-70) scale(0.1 -0.1)">
       <defs>
        <path id="DejaVuSans-74" d="M 1172 4494 
L 1172 3500 
L 2356 3500 
L 2356 3053 
L 1172 3053 
L 1172 1153 
Q 1172 725 1289 603 
Q 1406 481 1766 481 
L 2356 481 
L 2356 0 
L 1766 0 
Q 1100 0 847 248 
Q 594 497 594 1153 
L 594 3053 
L 172 3053 
L 172 3500 
L 594 3500 
L 594 4494 
L 1172 4494 
z
" transform="scale(0.015625)"/>
        <path id="DejaVuSans-6b" d="M 581 4863 
L 1159 4863 
L 1159 1991 
L 2875 3500 
L 3609 3500 
L 1753 1863 
L 3688 0 
L 2938 0 
L 1159 1709 
L 1159 0 
L 581 0 
L 581 4863 
z
" transform="scale(0.015625)"/>
        <path id="DejaVuSans-31" d="M 794 531 
L 1825 531 
L 1825 4091 
L 703 3866 
L 703 4441 
L 1819 4666 
L 2450 4666 
L 2450 531 
L 3481 531 
L 3481 0 
L 794 0 
L 794 531 
z
" transform="scale(0.015625)"/>
       </defs>
       <use xlink:href="#DejaVuSans-62"/>
       <use xlink:href="#DejaVuSans-63" x="63.476562"/>
       <use xlink:href="#DejaVuSans-73" x="118.457031"/>
       <use xlink:href="#DejaVuSans-73" x="170.556641"/>
       <use xlink:href="#DejaVuSans-74" x="222.65625"/>
       <use xlink:href="#DejaVuSans-6b" x="261.865234"/>
       <use xlink:href="#DejaVuSans-31" x="319.775391"/>
       <use xlink:href="#DejaVuSans-33" x="383.398438"/>
      </g>
     </g>
    </g>
    <g id="xtick_4">
     <g id="line2d_4">
      <g>
       <use xlink:href="#m25d959105f" x="148.970625" y="288.430125" style="stroke: #000000; stroke-width: 0.8"/>
      </g>
     </g>
     <g id="text_4">
      <!-- bcsstk17 -->
      <g transform="translate(143.919172 340.034672) rotate(-70) scale(0.1 -0.1)">
       <defs>
        <path id="DejaVuSans-37" d="M 525 4666 
L 3525 4666 
L 3525 4397 
L 1831 0 
L 1172 0 
L 2766 4134 
L 525 4134 
L 525 4666 
z
" transform="scale(0.015625)"/>
       </defs>
       <use xlink:href="#DejaVuSans-62"/>
       <use xlink:href="#DejaVuSans-63" x="63.476562"/>
       <use xlink:href="#DejaVuSans-73" x="118.457031"/>
       <use xlink:href="#DejaVuSans-73" x="170.556641"/>
       <use xlink:href="#DejaVuSans-74" x="222.65625"/>
       <use xlink:href="#DejaVuSans-6b" x="261.865234"/>
       <use xlink:href="#DejaVuSans-31" x="319.775391"/>
       <use xlink:href="#DejaVuSans-37" x="383.398438"/>
      </g>
     </g>
    </g>
    <g id="xtick_5">
     <g id="line2d_5">
      <g>
       <use xlink:href="#m25d959105f" x="174.479196" y="288.430125" style="stroke: #000000; stroke-width: 0.8"/>
      </g>
     </g>
     <g id="text_5">
      <!-- cant -->
      <g transform="translate(173.329712 318.593529) rotate(-70) scale(0.1 -0.1)">
       <defs>
        <path id="DejaVuSans-6e" d="M 3513 2113 
L 3513 0 
L 2938 0 
L 2938 2094 
Q 2938 2591 2744 2837 
Q 2550 3084 2163 3084 
Q 1697 3084 1428 2787 
Q 1159 2491 1159 1978 
L 1159 0 
L 581 0 
L 581 3500 
L 1159 3500 
L 1159 2956 
Q 1366 3272 1645 3428 
Q 1925 3584 2291 3584 
Q 2894 3584 3203 3211 
Q 3513 2838 3513 2113 
z
" transform="scale(0.015625)"/>
       </defs>
       <use xlink:href="#DejaVuSans-63"/>
       <use xlink:href="#DejaVuSans-61" x="54.980469"/>
       <use xlink:href="#DejaVuSans-6e" x="116.259766"/>
       <use xlink:href="#DejaVuSans-74" x="179.638672"/>
      </g>
     </g>
    </g>
    <g id="xtick_6">
     <g id="line2d_6">
      <g>
       <use xlink:href="#m25d959105f" x="199.987768" y="288.430125" style="stroke: #000000; stroke-width: 0.8"/>
      </g>
     </g>
     <g id="text_6">
      <!-- cop20k_A -->
      <g transform="translate(194.186529 343.436653) rotate(-70) scale(0.1 -0.1)">
       <defs>
        <path id="DejaVuSans-6f" d="M 1959 3097 
Q 1497 3097 1228 2736 
Q 959 2375 959 1747 
Q 959 1119 1226 758 
Q 1494 397 1959 397 
Q 2419 397 2687 759 
Q 2956 1122 2956 1747 
Q 2956 2369 2687 2733 
Q 2419 3097 1959 3097 
z
M 1959 3584 
Q 2709 3584 3137 3096 
Q 3566 2609 3566 1747 
Q 3566 888 3137 398 
Q 2709 -91 1959 -91 
Q 1206 -91 779 398 
Q 353 888 353 1747 
Q 353 2609 779 3096 
Q 1206 3584 1959 3584 
z
" transform="scale(0.015625)"/>
        <path id="DejaVuSans-41" d="M 2188 4044 
L 1331 1722 
L 3047 1722 
L 2188 4044 
z
M 1831 4666 
L 2547 4666 
L 4325 0 
L 3669 0 
L 3244 1197 
L 1141 1197 
L 716 0 
L 50 0 
L 1831 4666 
z
" transform="scale(0.015625)"/>
       </defs>
       <use xlink:href="#DejaVuSans-63"/>
       <use xlink:href="#DejaVuSans-6f" x="54.980469"/>
       <use xlink:href="#DejaVuSans-70" x="116.162109"/>
       <use xlink:href="#DejaVuSans-32" x="179.638672"/>
       <use xlink:href="#DejaVuSans-30" x="243.261719"/>
       <use xlink:href="#DejaVuSans-6b" x="306.884766"/>
       <use xlink:href="#DejaVuSans-5f" x="364.794922"/>
       <use xlink:href="#DejaVuSans-41" x="414.794922"/>
      </g>
     </g>
    </g>
    <g id="xtick_7">
     <g id="line2d_7">
      <g>
       <use xlink:href="#m25d959105f" x="225.496339" y="288.430125" style="stroke: #000000; stroke-width: 0.8"/>
      </g>
     </g>
     <g id="text_7">
      <!-- crankseg_2 -->
      <g transform="translate(218.221474 351.534161) rotate(-70) scale(0.1 -0.1)">
       <defs>
        <path id="DejaVuSans-67" d="M 2906 1791 
Q 2906 2416 2648 2759 
Q 2391 3103 1925 3103 
Q 1463 3103 1205 2759 
Q 947 2416 947 1791 
Q 947 1169 1205 825 
Q 1463 481 1925 481 
Q 2391 481 2648 825 
Q 2906 1169 2906 1791 
z
M 3481 434 
Q 3481 -459 3084 -895 
Q 2688 -1331 1869 -1331 
Q 1566 -1331 1297 -1286 
Q 1028 -1241 775 -1147 
L 775 -588 
Q 1028 -725 1275 -790 
Q 1522 -856 1778 -856 
Q 2344 -856 2625 -561 
Q 2906 -266 2906 331 
L 2906 616 
Q 2728 306 2450 153 
Q 2172 0 1784 0 
Q 1141 0 747 490 
Q 353 981 353 1791 
Q 353 2603 747 3093 
Q 1141 3584 1784 3584 
Q 2172 3584 2450 3431 
Q 2728 3278 2906 2969 
L 2906 3500 
L 3481 3500 
L 3481 434 
z
" transform="scale(0.015625)"/>
       </defs>
       <use xlink:href="#DejaVuSans-63"/>
       <use xlink:href="#DejaVuSans-72" x="54.980469"/>
       <use xlink:href="#DejaVuSans-61" x="96.09375"/>
       <use xlink:href="#DejaVuSans-6e" x="157.373047"/>
       <use xlink:href="#DejaVuSans-6b" x="220.751953"/>
       <use xlink:href="#DejaVuSans-73" x="278.662109"/>
       <use xlink:href="#DejaVuSans-65" x="330.761719"/>
       <use xlink:href="#DejaVuSans-67" x="392.285156"/>
       <use xlink:href="#DejaVuSans-5f" x="455.761719"/>
       <use xlink:href="#DejaVuSans-32" x="505.761719"/>
      </g>
     </g>
    </g>
    <g id="xtick_8">
     <g id="line2d_8">
      <g>
       <use xlink:href="#m25d959105f" x="251.004911" y="288.430125" style="stroke: #000000; stroke-width: 0.8"/>
      </g>
     </g>
     <g id="text_8">
      <!-- dw4096 -->
      <g transform="translate(246.76148 335.594624) rotate(-70) scale(0.1 -0.1)">
       <defs>
        <path id="DejaVuSans-64" d="M 2906 2969 
L 2906 4863 
L 3481 4863 
L 3481 0 
L 2906 0 
L 2906 525 
Q 2725 213 2448 61 
Q 2172 -91 1784 -91 
Q 1150 -91 751 415 
Q 353 922 353 1747 
Q 353 2572 751 3078 
Q 1150 3584 1784 3584 
Q 2172 3584 2448 3432 
Q 2725 3281 2906 2969 
z
M 947 1747 
Q 947 1113 1208 752 
Q 1469 391 1925 391 
Q 2381 391 2643 752 
Q 2906 1113 2906 1747 
Q 2906 2381 2643 2742 
Q 2381 3103 1925 3103 
Q 1469 3103 1208 2742 
Q 947 2381 947 1747 
z
" transform="scale(0.015625)"/>
        <path id="DejaVuSans-77" d="M 269 3500 
L 844 3500 
L 1563 769 
L 2278 3500 
L 2956 3500 
L 3675 769 
L 4391 3500 
L 4966 3500 
L 4050 0 
L 3372 0 
L 2619 2869 
L 1863 0 
L 1184 0 
L 269 3500 
z
" transform="scale(0.015625)"/>
        <path id="DejaVuSans-34" d="M 2419 4116 
L 825 1625 
L 2419 1625 
L 2419 4116 
z
M 2253 4666 
L 3047 4666 
L 3047 1625 
L 3713 1625 
L 3713 1100 
L 3047 1100 
L 3047 0 
L 2419 0 
L 2419 1100 
L 313 1100 
L 313 1709 
L 2253 4666 
z
" transform="scale(0.015625)"/>
        <path id="DejaVuSans-39" d="M 703 97 
L 703 672 
Q 941 559 1184 500 
Q 1428 441 1663 441 
Q 2288 441 2617 861 
Q 2947 1281 2994 2138 
Q 2813 1869 2534 1725 
Q 2256 1581 1919 1581 
Q 1219 1581 811 2004 
Q 403 2428 403 3163 
Q 403 3881 828 4315 
Q 1253 4750 1959 4750 
Q 2769 4750 3195 4129 
Q 3622 3509 3622 2328 
Q 3622 1225 3098 567 
Q 2575 -91 1691 -91 
Q 1453 -91 1209 -44 
Q 966 3 703 97 
z
M 1959 2075 
Q 2384 2075 2632 2365 
Q 2881 2656 2881 3163 
Q 2881 3666 2632 3958 
Q 2384 4250 1959 4250 
Q 1534 4250 1286 3958 
Q 1038 3666 1038 3163 
Q 1038 2656 1286 2365 
Q 1534 2075 1959 2075 
z
" transform="scale(0.015625)"/>
       </defs>
       <use xlink:href="#DejaVuSans-64"/>
       <use xlink:href="#DejaVuSans-77" x="63.476562"/>
       <use xlink:href="#DejaVuSans-34" x="145.263672"/>
       <use xlink:href="#DejaVuSans-30" x="208.886719"/>
       <use xlink:href="#DejaVuSans-39" x="272.509766"/>
       <use xlink:href="#DejaVuSans-36" x="336.132812"/>
      </g>
     </g>
    </g>
    <g id="xtick_9">
     <g id="line2d_9">
      <g>
       <use xlink:href="#m25d959105f" x="276.513482" y="288.430125" style="stroke: #000000; stroke-width: 0.8"/>
      </g>
     </g>
     <g id="text_9">
      <!-- nd24k -->
      <g transform="translate(273.770665 327.348822) rotate(-70) scale(0.1 -0.1)">
       <use xlink:href="#DejaVuSans-6e"/>
       <use xlink:href="#DejaVuSans-64" x="63.378906"/>
       <use xlink:href="#DejaVuSans-32" x="126.855469"/>
       <use xlink:href="#DejaVuSans-34" x="190.478516"/>
       <use xlink:href="#DejaVuSans-6b" x="254.101562"/>
      </g>
     </g>
    </g>
    <g id="xtick_10">
     <g id="line2d_10">
      <g>
       <use xlink:href="#m25d959105f" x="302.022054" y="288.430125" style="stroke: #000000; stroke-width: 0.8"/>
      </g>
     </g>
     <g id="text_10">
      <!-- pdb1HYS -->
      <g transform="translate(296.853833 340.676306) rotate(-70) scale(0.1 -0.1)">
       <defs>
        <path id="DejaVuSans-48" d="M 628 4666 
L 1259 4666 
L 1259 2753 
L 3553 2753 
L 3553 4666 
L 4184 4666 
L 4184 0 
L 3553 0 
L 3553 2222 
L 1259 2222 
L 1259 0 
L 628 0 
L 628 4666 
z
" transform="scale(0.015625)"/>
        <path id="DejaVuSans-59" d="M -13 4666 
L 666 4666 
L 1959 2747 
L 3244 4666 
L 3922 4666 
L 2272 2222 
L 2272 0 
L 1638 0 
L 1638 2222 
L -13 4666 
z
" transform="scale(0.015625)"/>
        <path id="DejaVuSans-53" d="M 3425 4513 
L 3425 3897 
Q 3066 4069 2747 4153 
Q 2428 4238 2131 4238 
Q 1616 4238 1336 4038 
Q 1056 3838 1056 3469 
Q 1056 3159 1242 3001 
Q 1428 2844 1947 2747 
L 2328 2669 
Q 3034 2534 3370 2195 
Q 3706 1856 3706 1288 
Q 3706 609 3251 259 
Q 2797 -91 1919 -91 
Q 1588 -91 1214 -16 
Q 841 59 441 206 
L 441 856 
Q 825 641 1194 531 
Q 1563 422 1919 422 
Q 2459 422 2753 634 
Q 3047 847 3047 1241 
Q 3047 1584 2836 1778 
Q 2625 1972 2144 2069 
L 1759 2144 
Q 1053 2284 737 2584 
Q 422 2884 422 3419 
Q 422 4038 858 4394 
Q 1294 4750 2059 4750 
Q 2388 4750 2728 4690 
Q 3069 4631 3425 4513 
z
" transform="scale(0.015625)"/>
       </defs>
       <use xlink:href="#DejaVuSans-70"/>
       <use xlink:href="#DejaVuSans-64" x="63.476562"/>
       <use xlink:href="#DejaVuSans-62" x="126.953125"/>
       <use xlink:href="#DejaVuSans-31" x="190.429688"/>
       <use xlink:href="#DejaVuSans-48" x="254.052734"/>
       <use xlink:href="#DejaVuSans-59" x="329.248047"/>
       <use xlink:href="#DejaVuSans-53" x="390.332031"/>
      </g>
     </g>
    </g>
    <g id="xtick_11">
     <g id="line2d_11">
      <g>
       <use xlink:href="#m25d959105f" x="327.530625" y="288.430125" style="stroke: #000000; stroke-width: 0.8"/>
      </g>
     </g>
     <g id="text_11">
      <!-- rma10 -->
      <g transform="translate(324.560685 328.596851) rotate(-70) scale(0.1 -0.1)">
       <defs>
        <path id="DejaVuSans-6d" d="M 3328 2828 
Q 3544 3216 3844 3400 
Q 4144 3584 4550 3584 
Q 5097 3584 5394 3201 
Q 5691 2819 5691 2113 
L 5691 0 
L 5113 0 
L 5113 2094 
Q 5113 2597 4934 2840 
Q 4756 3084 4391 3084 
Q 3944 3084 3684 2787 
Q 3425 2491 3425 1978 
L 3425 0 
L 2847 0 
L 2847 2094 
Q 2847 2600 2669 2842 
Q 2491 3084 2119 3084 
Q 1678 3084 1418 2786 
Q 1159 2488 1159 1978 
L 1159 0 
L 581 0 
L 581 3500 
L 1159 3500 
L 1159 2956 
Q 1356 3278 1631 3431 
Q 1906 3584 2284 3584 
Q 2666 3584 2933 3390 
Q 3200 3197 3328 2828 
z
" transform="scale(0.015625)"/>
       </defs>
       <use xlink:href="#DejaVuSans-72"/>
       <use xlink:href="#DejaVuSans-6d" x="39.363281"/>
       <use xlink:href="#DejaVuSans-61" x="136.775391"/>
       <use xlink:href="#DejaVuSans-31" x="198.054688"/>
       <use xlink:href="#DejaVuSans-30" x="261.677734"/>
      </g>
     </g>
    </g>
    <g id="xtick_12">
     <g id="line2d_12">
      <g>
       <use xlink:href="#m25d959105f" x="353.039196" y="288.430125" style="stroke: #000000; stroke-width: 0.8"/>
      </g>
     </g>
     <g id="text_12">
      <!-- shallow_water1 -->
      <g transform="translate(342.268512 370.743533) rotate(-70) scale(0.1 -0.1)">
       <defs>
        <path id="DejaVuSans-6c" d="M 603 4863 
L 1178 4863 
L 1178 0 
L 603 0 
L 603 4863 
z
" transform="scale(0.015625)"/>
       </defs>
       <use xlink:href="#DejaVuSans-73"/>
       <use xlink:href="#DejaVuSans-68" x="52.099609"/>
       <use xlink:href="#DejaVuSans-61" x="115.478516"/>
       <use xlink:href="#DejaVuSans-6c" x="176.757812"/>
       <use xlink:href="#DejaVuSans-6c" x="204.541016"/>
       <use xlink:href="#DejaVuSans-6f" x="232.324219"/>
       <use xlink:href="#DejaVuSans-77" x="293.505859"/>
       <use xlink:href="#DejaVuSans-5f" x="375.292969"/>
       <use xlink:href="#DejaVuSans-77" x="425.292969"/>
       <use xlink:href="#DejaVuSans-61" x="507.080078"/>
       <use xlink:href="#DejaVuSans-74" x="568.359375"/>
       <use xlink:href="#DejaVuSans-65" x="607.568359"/>
       <use xlink:href="#DejaVuSans-72" x="669.091797"/>
       <use xlink:href="#DejaVuSans-31" x="710.205078"/>
      </g>
     </g>
    </g>
    <g id="xtick_13">
     <g id="line2d_13">
      <g>
       <use xlink:href="#m25d959105f" x="378.547768" y="288.430125" style="stroke: #000000; stroke-width: 0.8"/>
      </g>
     </g>
     <g id="text_13">
      <!-- torso1 -->
      <g transform="translate(375.695665 327.949344) rotate(-70) scale(0.1 -0.1)">
       <use xlink:href="#DejaVuSans-74"/>
       <use xlink:href="#DejaVuSans-6f" x="39.208984"/>
       <use xlink:href="#DejaVuSans-72" x="100.390625"/>
       <use xlink:href="#DejaVuSans-73" x="141.503906"/>
       <use xlink:href="#DejaVuSans-6f" x="193.603516"/>
       <use xlink:href="#DejaVuSans-31" x="254.785156"/>
      </g>
     </g>
    </g>
    <g id="xtick_14">
     <g id="line2d_14">
      <g>
       <use xlink:href="#m25d959105f" x="404.056339" y="288.430125" style="stroke: #000000; stroke-width: 0.8"/>
      </g>
     </g>
     <g id="text_14">
      <!-- x104 -->
      <g transform="translate(402.372983 321.527132) rotate(-70) scale(0.1 -0.1)">
       <defs>
        <path id="DejaVuSans-78" d="M 3513 3500 
L 2247 1797 
L 3578 0 
L 2900 0 
L 1881 1375 
L 863 0 
L 184 0 
L 1544 1831 
L 300 3500 
L 978 3500 
L 1906 2253 
L 2834 3500 
L 3513 3500 
z
" transform="scale(0.015625)"/>
       </defs>
       <use xlink:href="#DejaVuSans-78"/>
       <use xlink:href="#DejaVuSans-31" x="59.179688"/>
       <use xlink:href="#DejaVuSans-30" x="122.802734"/>
       <use xlink:href="#DejaVuSans-34" x="186.425781"/>
      </g>
     </g>
    </g>
    <g id="text_15">
     <!-- Matrix -->
     <g transform="translate(222.508438 383.14839) scale(0.1 -0.1)">
      <defs>
       <path id="DejaVuSans-4d" d="M 628 4666 
L 1569 4666 
L 2759 1491 
L 3956 4666 
L 4897 4666 
L 4897 0 
L 4281 0 
L 4281 4097 
L 3078 897 
L 2444 897 
L 1241 4097 
L 1241 0 
L 628 0 
L 628 4666 
z
" transform="scale(0.015625)"/>
       <path id="DejaVuSans-69" d="M 603 3500 
L 1178 3500 
L 1178 0 
L 603 0 
L 603 3500 
z
M 603 4863 
L 1178 4863 
L 1178 4134 
L 603 4134 
L 603 4863 
z
" transform="scale(0.015625)"/>
      </defs>
      <use xlink:href="#DejaVuSans-4d"/>
      <use xlink:href="#DejaVuSans-61" x="86.279297"/>
      <use xlink:href="#DejaVuSans-74" x="147.558594"/>
      <use xlink:href="#DejaVuSans-72" x="186.767578"/>
      <use xlink:href="#DejaVuSans-69" x="227.880859"/>
      <use xlink:href="#DejaVuSans-78" x="255.664062"/>
     </g>
    </g>
   </g>
   <g id="matplotlib.axis_2">
    <g id="ytick_1">
     <g id="line2d_15">
      <defs>
       <path id="m9d476715b5" d="M 0 0 
L -3.5 0 
" style="stroke: #000000; stroke-width: 0.8"/>
      </defs>
      <g>
       <use xlink:href="#m9d476715b5" x="59.690625" y="288.430125" style="stroke: #000000; stroke-width: 0.8"/>
      </g>
     </g>
     <g id="text_16">
      <!-- 0 -->
      <g transform="translate(46.328125 292.229344) scale(0.1 -0.1)">
       <use xlink:href="#DejaVuSans-30"/>
      </g>
     </g>
    </g>
    <g id="ytick_2">
     <g id="line2d_16">
      <g>
       <use xlink:href="#m9d476715b5" x="59.690625" y="237.573408" style="stroke: #000000; stroke-width: 0.8"/>
      </g>
     </g>
     <g id="text_17">
      <!-- 2000 -->
      <g transform="translate(27.240625 241.372627) scale(0.1 -0.1)">
       <use xlink:href="#DejaVuSans-32"/>
       <use xlink:href="#DejaVuSans-30" x="63.623047"/>
       <use xlink:href="#DejaVuSans-30" x="127.246094"/>
       <use xlink:href="#DejaVuSans-30" x="190.869141"/>
      </g>
     </g>
    </g>
    <g id="ytick_3">
     <g id="line2d_17">
      <g>
       <use xlink:href="#m9d476715b5" x="59.690625" y="186.716691" style="stroke: #000000; stroke-width: 0.8"/>
      </g>
     </g>
     <g id="text_18">
      <!-- 4000 -->
      <g transform="translate(27.240625 190.51591) scale(0.1 -0.1)">
       <use xlink:href="#DejaVuSans-34"/>
       <use xlink:href="#DejaVuSans-30" x="63.623047"/>
       <use xlink:href="#DejaVuSans-30" x="127.246094"/>
       <use xlink:href="#DejaVuSans-30" x="190.869141"/>
      </g>
     </g>
    </g>
    <g id="ytick_4">
     <g id="line2d_18">
      <g>
       <use xlink:href="#m9d476715b5" x="59.690625" y="135.859974" style="stroke: #000000; stroke-width: 0.8"/>
      </g>
     </g>
     <g id="text_19">
      <!-- 6000 -->
      <g transform="translate(27.240625 139.659193) scale(0.1 -0.1)">
       <use xlink:href="#DejaVuSans-36"/>
       <use xlink:href="#DejaVuSans-30" x="63.623047"/>
       <use xlink:href="#DejaVuSans-30" x="127.246094"/>
       <use xlink:href="#DejaVuSans-30" x="190.869141"/>
      </g>
     </g>
    </g>
    <g id="ytick_5">
     <g id="line2d_19">
      <g>
       <use xlink:href="#m9d476715b5" x="59.690625" y="85.003257" style="stroke: #000000; stroke-width: 0.8"/>
      </g>
     </g>
     <g id="text_20">
      <!-- 8000 -->
      <g transform="translate(27.240625 88.802476) scale(0.1 -0.1)">
       <defs>
        <path id="DejaVuSans-38" d="M 2034 2216 
Q 1584 2216 1326 1975 
Q 1069 1734 1069 1313 
Q 1069 891 1326 650 
Q 1584 409 2034 409 
Q 2484 409 2743 651 
Q 3003 894 3003 1313 
Q 3003 1734 2745 1975 
Q 2488 2216 2034 2216 
z
M 1403 2484 
Q 997 2584 770 2862 
Q 544 3141 544 3541 
Q 544 4100 942 4425 
Q 1341 4750 2034 4750 
Q 2731 4750 3128 4425 
Q 3525 4100 3525 3541 
Q 3525 3141 3298 2862 
Q 3072 2584 2669 2484 
Q 3125 2378 3379 2068 
Q 3634 1759 3634 1313 
Q 3634 634 3220 271 
Q 2806 -91 2034 -91 
Q 1263 -91 848 271 
Q 434 634 434 1313 
Q 434 1759 690 2068 
Q 947 2378 1403 2484 
z
M 1172 3481 
Q 1172 3119 1398 2916 
Q 1625 2713 2034 2713 
Q 2441 2713 2670 2916 
Q 2900 3119 2900 3481 
Q 2900 3844 2670 4047 
Q 2441 4250 2034 4250 
Q 1625 4250 1398 4047 
Q 1172 3844 1172 3481 
z
" transform="scale(0.015625)"/>
       </defs>
       <use xlink:href="#DejaVuSans-38"/>
       <use xlink:href="#DejaVuSans-30" x="63.623047"/>
       <use xlink:href="#DejaVuSans-30" x="127.246094"/>
       <use xlink:href="#DejaVuSans-30" x="190.869141"/>
      </g>
     </g>
    </g>
    <g id="ytick_6">
     <g id="line2d_20">
      <g>
       <use xlink:href="#m9d476715b5" x="59.690625" y="34.14654" style="stroke: #000000; stroke-width: 0.8"/>
      </g>
     </g>
     <g id="text_21">
      <!-- 10000 -->
      <g transform="translate(20.878125 37.945759) scale(0.1 -0.1)">
       <use xlink:href="#DejaVuSans-31"/>
       <use xlink:href="#DejaVuSans-30" x="63.623047"/>
       <use xlink:href="#DejaVuSans-30" x="127.246094"/>
       <use xlink:href="#DejaVuSans-30" x="190.869141"/>
       <use xlink:href="#DejaVuSans-30" x="254.492188"/>
      </g>
     </g>
    </g>
    <g id="text_22">
     <!-- MFLOPS -->
     <g transform="translate(14.798438 175.293656) rotate(-90) scale(0.1 -0.1)">
      <defs>
       <path id="DejaVuSans-46" d="M 628 4666 
L 3309 4666 
L 3309 4134 
L 1259 4134 
L 1259 2759 
L 3109 2759 
L 3109 2228 
L 1259 2228 
L 1259 0 
L 628 0 
L 628 4666 
z
" transform="scale(0.015625)"/>
       <path id="DejaVuSans-4c" d="M 628 4666 
L 1259 4666 
L 1259 531 
L 3531 531 
L 3531 0 
L 628 0 
L 628 4666 
z
" transform="scale(0.015625)"/>
       <path id="DejaVuSans-4f" d="M 2522 4238 
Q 1834 4238 1429 3725 
Q 1025 3213 1025 2328 
Q 1025 1447 1429 934 
Q 1834 422 2522 422 
Q 3209 422 3611 934 
Q 4013 1447 4013 2328 
Q 4013 3213 3611 3725 
Q 3209 4238 2522 4238 
z
M 2522 4750 
Q 3503 4750 4090 4092 
Q 4678 3434 4678 2328 
Q 4678 1225 4090 567 
Q 3503 -91 2522 -91 
Q 1538 -91 948 565 
Q 359 1222 359 2328 
Q 359 3434 948 4092 
Q 1538 4750 2522 4750 
z
" transform="scale(0.015625)"/>
       <path id="DejaVuSans-50" d="M 1259 4147 
L 1259 2394 
L 2053 2394 
Q 2494 2394 2734 2622 
Q 2975 2850 2975 3272 
Q 2975 3691 2734 3919 
Q 2494 4147 2053 4147 
L 1259 4147 
z
M 628 4666 
L 2053 4666 
Q 2838 4666 3239 4311 
Q 3641 3956 3641 3272 
Q 3641 2581 3239 2228 
Q 2838 1875 2053 1875 
L 1259 1875 
L 1259 0 
L 628 0 
L 628 4666 
z
" transform="scale(0.015625)"/>
      </defs>
      <use xlink:href="#DejaVuSans-4d"/>
      <use xlink:href="#DejaVuSans-46" x="86.279297"/>
      <use xlink:href="#DejaVuSans-4c" x="143.798828"/>
      <use xlink:href="#DejaVuSans-4f" x="195.886719"/>
      <use xlink:href="#DejaVuSans-50" x="274.597656"/>
      <use xlink:href="#DejaVuSans-53" x="334.900391"/>
     </g>
    </g>
   </g>
   <g id="patch_59">
    <path d="M 59.690625 288.430125 
L 59.690625 22.318125 
" style="fill: none; stroke: #000000; stroke-width: 0.8; stroke-linejoin: miter; stroke-linecap: square"/>
   </g>
   <g id="patch_60">
    <path d="M 416.810625 288.430125 
L 416.810625 22.318125 
" style="fill: none; stroke: #000000; stroke-width: 0.8; stroke-linejoin: miter; stroke-linecap: square"/>
   </g>
   <g id="patch_61">
    <path d="M 59.690625 288.430125 
L 416.810625 288.430125 
" style="fill: none; stroke: #000000; stroke-width: 0.8; stroke-linejoin: miter; stroke-linecap: square"/>
   </g>
   <g id="patch_62">
    <path d="M 59.690625 22.318125 
L 416.810625 22.318125 
" style="fill: none; stroke: #000000; stroke-width: 0.8; stroke-linejoin: miter; stroke-linecap: square"/>
   </g>
   <g id="text_23">
    <!-- Serial- All Types (Intel) -->
    <g transform="translate(171.07875 16.318125) scale(0.12 -0.12)">
     <defs>
      <path id="DejaVuSans-2d" d="M 313 2009 
L 1997 2009 
L 1997 1497 
L 313 1497 
L 313 2009 
z
" transform="scale(0.015625)"/>
      <path id="DejaVuSans-20" transform="scale(0.015625)"/>
      <path id="DejaVuSans-54" d="M -19 4666 
L 3928 4666 
L 3928 4134 
L 2272 4134 
L 2272 0 
L 1638 0 
L 1638 4134 
L -19 4134 
L -19 4666 
z
" transform="scale(0.015625)"/>
      <path id="DejaVuSans-79" d="M 2059 -325 
Q 1816 -950 1584 -1140 
Q 1353 -1331 966 -1331 
L 506 -1331 
L 506 -850 
L 844 -850 
Q 1081 -850 1212 -737 
Q 1344 -625 1503 -206 
L 1606 56 
L 191 3500 
L 800 3500 
L 1894 763 
L 2988 3500 
L 3597 3500 
L 2059 -325 
z
" transform="scale(0.015625)"/>
      <path id="DejaVuSans-28" d="M 1984 4856 
Q 1566 4138 1362 3434 
Q 1159 2731 1159 2009 
Q 1159 1288 1364 580 
Q 1569 -128 1984 -844 
L 1484 -844 
Q 1016 -109 783 600 
Q 550 1309 550 2009 
Q 550 2706 781 3412 
Q 1013 4119 1484 4856 
L 1984 4856 
z
" transform="scale(0.015625)"/>
      <path id="DejaVuSans-49" d="M 628 4666 
L 1259 4666 
L 1259 0 
L 628 0 
L 628 4666 
z
" transform="scale(0.015625)"/>
      <path id="DejaVuSans-29" d="M 513 4856 
L 1013 4856 
Q 1481 4119 1714 3412 
Q 1947 2706 1947 2009 
Q 1947 1309 1714 600 
Q 1481 -109 1013 -844 
L 513 -844 
Q 928 -128 1133 580 
Q 1338 1288 1338 2009 
Q 1338 2731 1133 3434 
Q 928 4138 513 4856 
z
" transform="scale(0.015625)"/>
     </defs>
     <use xlink:href="#DejaVuSans-53"/>
     <use xlink:href="#DejaVuSans-65" x="63.476562"/>
     <use xlink:href="#DejaVuSans-72" x="125"/>
     <use xlink:href="#DejaVuSans-69" x="166.113281"/>
     <use xlink:href="#DejaVuSans-61" x="193.896484"/>
     <use xlink:href="#DejaVuSans-6c" x="255.175781"/>
     <use xlink:href="#DejaVuSans-2d" x="282.958984"/>
     <use xlink:href="#DejaVuSans-20" x="319.042969"/>
     <use xlink:href="#DejaVuSans-41" x="350.830078"/>
     <use xlink:href="#DejaVuSans-6c" x="419.238281"/>
     <use xlink:href="#DejaVuSans-6c" x="447.021484"/>
     <use xlink:href="#DejaVuSans-20" x="474.804688"/>
     <use xlink:href="#DejaVuSans-54" x="506.591797"/>
     <use xlink:href="#DejaVuSans-79" x="552.050781"/>
     <use xlink:href="#DejaVuSans-70" x="611.230469"/>
     <use xlink:href="#DejaVuSans-65" x="674.707031"/>
     <use xlink:href="#DejaVuSans-73" x="736.230469"/>
     <use xlink:href="#DejaVuSans-20" x="788.330078"/>
     <use xlink:href="#DejaVuSans-28" x="820.117188"/>
     <use xlink:href="#DejaVuSans-49" x="859.130859"/>
     <use xlink:href="#DejaVuSans-6e" x="888.623047"/>
     <use xlink:href="#DejaVuSans-74" x="952.001953"/>
     <use xlink:href="#DejaVuSans-65" x="991.210938"/>
     <use xlink:href="#DejaVuSans-6c" x="1052.734375"/>
     <use xlink:href="#DejaVuSans-29" x="1080.517578"/>
    </g>
   </g>
   <g id="legend_1">
    <g id="patch_63">
     <path d="M 319.37 103.70875 
L 409.810625 103.70875 
Q 411.810625 103.70875 411.810625 101.70875 
L 411.810625 29.318125 
Q 411.810625 27.318125 409.810625 27.318125 
L 319.37 27.318125 
Q 317.37 27.318125 317.37 29.318125 
L 317.37 101.70875 
Q 317.37 103.70875 319.37 103.70875 
z
" style="fill: #ffffff; opacity: 0.8; stroke: #cccccc; stroke-linejoin: miter"/>
    </g>
    <g id="text_24">
     <!-- Name -->
     <g transform="translate(349.83875 38.916562) scale(0.1 -0.1)">
      <defs>
       <path id="DejaVuSans-4e" d="M 628 4666 
L 1478 4666 
L 3547 763 
L 3547 4666 
L 4159 4666 
L 4159 0 
L 3309 0 
L 1241 3903 
L 1241 0 
L 628 0 
L 628 4666 
z
" transform="scale(0.015625)"/>
      </defs>
      <use xlink:href="#DejaVuSans-4e"/>
      <use xlink:href="#DejaVuSans-61" x="74.804688"/>
      <use xlink:href="#DejaVuSans-6d" x="136.083984"/>
      <use xlink:href="#DejaVuSans-65" x="233.496094"/>
     </g>
    </g>
    <g id="patch_64">
     <path d="M 321.37 53.594688 
L 341.37 53.594688 
L 341.37 46.594688 
L 321.37 46.594688 
z
" style="fill: #1f77b4"/>
    </g>
    <g id="text_25">
     <!-- BCSR Serial -->
     <g transform="translate(349.37 53.594688) scale(0.1 -0.1)">
      <defs>
       <path id="DejaVuSans-42" d="M 1259 2228 
L 1259 519 
L 2272 519 
Q 2781 519 3026 730 
Q 3272 941 3272 1375 
Q 3272 1813 3026 2020 
Q 2781 2228 2272 2228 
L 1259 2228 
z
M 1259 4147 
L 1259 2741 
L 2194 2741 
Q 2656 2741 2882 2914 
Q 3109 3088 3109 3444 
Q 3109 3797 2882 3972 
Q 2656 4147 2194 4147 
L 1259 4147 
z
M 628 4666 
L 2241 4666 
Q 2963 4666 3353 4366 
Q 3744 4066 3744 3513 
Q 3744 3084 3544 2831 
Q 3344 2578 2956 2516 
Q 3422 2416 3680 2098 
Q 3938 1781 3938 1306 
Q 3938 681 3513 340 
Q 3088 0 2303 0 
L 628 0 
L 628 4666 
z
" transform="scale(0.015625)"/>
       <path id="DejaVuSans-43" d="M 4122 4306 
L 4122 3641 
Q 3803 3938 3442 4084 
Q 3081 4231 2675 4231 
Q 1875 4231 1450 3742 
Q 1025 3253 1025 2328 
Q 1025 1406 1450 917 
Q 1875 428 2675 428 
Q 3081 428 3442 575 
Q 3803 722 4122 1019 
L 4122 359 
Q 3791 134 3420 21 
Q 3050 -91 2638 -91 
Q 1578 -91 968 557 
Q 359 1206 359 2328 
Q 359 3453 968 4101 
Q 1578 4750 2638 4750 
Q 3056 4750 3426 4639 
Q 3797 4528 4122 4306 
z
" transform="scale(0.015625)"/>
       <path id="DejaVuSans-52" d="M 2841 2188 
Q 3044 2119 3236 1894 
Q 3428 1669 3622 1275 
L 4263 0 
L 3584 0 
L 2988 1197 
Q 2756 1666 2539 1819 
Q 2322 1972 1947 1972 
L 1259 1972 
L 1259 0 
L 628 0 
L 628 4666 
L 2053 4666 
Q 2853 4666 3247 4331 
Q 3641 3997 3641 3322 
Q 3641 2881 3436 2590 
Q 3231 2300 2841 2188 
z
M 1259 4147 
L 1259 2491 
L 2053 2491 
Q 2509 2491 2742 2702 
Q 2975 2913 2975 3322 
Q 2975 3731 2742 3939 
Q 2509 4147 2053 4147 
L 1259 4147 
z
" transform="scale(0.015625)"/>
      </defs>
      <use xlink:href="#DejaVuSans-42"/>
      <use xlink:href="#DejaVuSans-43" x="66.853516"/>
      <use xlink:href="#DejaVuSans-53" x="136.677734"/>
      <use xlink:href="#DejaVuSans-52" x="200.154297"/>
      <use xlink:href="#DejaVuSans-20" x="269.636719"/>
      <use xlink:href="#DejaVuSans-53" x="301.423828"/>
      <use xlink:href="#DejaVuSans-65" x="364.900391"/>
      <use xlink:href="#DejaVuSans-72" x="426.423828"/>
      <use xlink:href="#DejaVuSans-69" x="467.537109"/>
      <use xlink:href="#DejaVuSans-61" x="495.320312"/>
      <use xlink:href="#DejaVuSans-6c" x="556.599609"/>
     </g>
    </g>
    <g id="patch_65">
     <path d="M 321.37 68.272813 
L 341.37 68.272813 
L 341.37 61.272813 
L 321.37 61.272813 
z
" style="fill: #ff7f0e"/>
    </g>
    <g id="text_26">
     <!-- COO Serial -->
     <g transform="translate(349.37 68.272813) scale(0.1 -0.1)">
      <use xlink:href="#DejaVuSans-43"/>
      <use xlink:href="#DejaVuSans-4f" x="69.824219"/>
      <use xlink:href="#DejaVuSans-4f" x="148.535156"/>
      <use xlink:href="#DejaVuSans-20" x="227.246094"/>
      <use xlink:href="#DejaVuSans-53" x="259.033203"/>
      <use xlink:href="#DejaVuSans-65" x="322.509766"/>
      <use xlink:href="#DejaVuSans-72" x="384.033203"/>
      <use xlink:href="#DejaVuSans-69" x="425.146484"/>
      <use xlink:href="#DejaVuSans-61" x="452.929688"/>
      <use xlink:href="#DejaVuSans-6c" x="514.208984"/>
     </g>
    </g>
    <g id="patch_66">
     <path d="M 321.37 82.950938 
L 341.37 82.950938 
L 341.37 75.950938 
L 321.37 75.950938 
z
" style="fill: #2ca02c"/>
    </g>
    <g id="text_27">
     <!-- CSR Serial -->
     <g transform="translate(349.37 82.950938) scale(0.1 -0.1)">
      <use xlink:href="#DejaVuSans-43"/>
      <use xlink:href="#DejaVuSans-53" x="69.824219"/>
      <use xlink:href="#DejaVuSans-52" x="133.300781"/>
      <use xlink:href="#DejaVuSans-20" x="202.783203"/>
      <use xlink:href="#DejaVuSans-53" x="234.570312"/>
      <use xlink:href="#DejaVuSans-65" x="298.046875"/>
      <use xlink:href="#DejaVuSans-72" x="359.570312"/>
      <use xlink:href="#DejaVuSans-69" x="400.683594"/>
      <use xlink:href="#DejaVuSans-61" x="428.466797"/>
      <use xlink:href="#DejaVuSans-6c" x="489.746094"/>
     </g>
    </g>
    <g id="patch_67">
     <path d="M 321.37 97.629063 
L 341.37 97.629063 
L 341.37 90.629063 
L 321.37 90.629063 
z
" style="fill: #d62728"/>
    </g>
    <g id="text_28">
     <!-- ELL Serial -->
     <g transform="translate(349.37 97.629063) scale(0.1 -0.1)">
      <defs>
       <path id="DejaVuSans-45" d="M 628 4666 
L 3578 4666 
L 3578 4134 
L 1259 4134 
L 1259 2753 
L 3481 2753 
L 3481 2222 
L 1259 2222 
L 1259 531 
L 3634 531 
L 3634 0 
L 628 0 
L 628 4666 
z
" transform="scale(0.015625)"/>
      </defs>
      <use xlink:href="#DejaVuSans-45"/>
      <use xlink:href="#DejaVuSans-4c" x="63.183594"/>
      <use xlink:href="#DejaVuSans-4c" x="118.896484"/>
      <use xlink:href="#DejaVuSans-20" x="174.609375"/>
      <use xlink:href="#DejaVuSans-53" x="206.396484"/>
      <use xlink:href="#DejaVuSans-65" x="269.873047"/>
      <use xlink:href="#DejaVuSans-72" x="331.396484"/>
      <use xlink:href="#DejaVuSans-69" x="372.509766"/>
      <use xlink:href="#DejaVuSans-61" x="400.292969"/>
      <use xlink:href="#DejaVuSans-6c" x="461.572266"/>
     </g>
    </g>
   </g>
  </g>
 </g>
 <defs>
  <clipPath id="pb4c0e9f45c">
   <rect x="59.690625" y="22.318125" width="357.12" height="266.112"/>
  </clipPath>
 </defs>
</svg>
